<svg xmlns="http://www.w3.org/2000/svg" viewBox="0 0 474.81 419.74"><g id="freepik--background-simple--inject-92"><path d="M459.92,286.15c-14.34,38.38-43.62,79.93-84.82,92.23C312.83,397,305.4,447.16,193.88,442.5a224.84,224.84,0,0,1-48.22-7.07A188.22,188.22,0,0,1,123,427.89C57.84,401.5,23.85,343.43,21,282.66c-3.72-79.92,52-118,88.28-140.32s79.92-108.73,189.59-105a218.42,218.42,0,0,1,49.56,7.24c36.9,10,74.42,32.08,96.21,64.37q2.46,3.64,4.69,7.44C478.53,165.86,479.46,233.82,459.92,286.15Z" transform="translate(-15.44 -37.21)" style="fill:#3d4be4"/><path d="M459.92,286.15c-14.34,38.38-43.62,79.93-84.82,92.23C312.83,397,305.4,447.16,193.88,442.5a224.84,224.84,0,0,1-48.22-7.07A188.22,188.22,0,0,1,123,427.89C57.84,401.5,23.85,343.43,21,282.66c-3.72-79.92,52-118,88.28-140.32s79.92-108.73,189.59-105a218.42,218.42,0,0,1,49.56,7.24c36.9,10,74.42,32.08,96.21,64.37q2.46,3.64,4.69,7.44C478.53,165.86,479.46,233.82,459.92,286.15Z" transform="translate(-15.44 -37.21)" style="fill:#fff;opacity:.8"/></g><g id="freepik--Floor--inject-92"><line x1="474.31" x2="4.21" y1="391" y2="391" style="fill:none;stroke:#263238;stroke-linecap:round;stroke-linejoin:round"/></g><g id="freepik--Plant--inject-92"><path d="M117.24,313.62c.07.06,2.44-5.87,2.55-6.26,1.23-4.53.95-14-3.46-16.88a6.23,6.23,0,0,0-8.87,2.65c-1.7,3.29-.65,7.74.87,10.9C110.11,307.75,117.23,313.61,117.24,313.62Z" transform="translate(-15.44 -37.21)" style="fill:#263238"/><path d="M24.93,299.76c3.53,2.11,12.71,3.08,12.71,3.08s-1.2-6.24-1.32-6.63C34.85,291.75,29.38,284,24.13,284a6.23,6.23,0,0,0-5.95,7.1C18.58,294.83,21.92,298,24.93,299.76Z" transform="translate(-15.44 -37.21)" style="fill:#263238"/><path d="M24.69,326.67c3.81,1.07,12.28-.26,13-.37a109.22,109.22,0,0,0,3.2,14.35c.79,2.74,1.67,5.48,2.59,8.22-.61-1.19-1.16-2.25-1.25-2.39-2.6-3.91-9.91-9.94-15-8.51a6.21,6.21,0,0,0-3.86,8.41c1.36,3.45,5.4,5.59,8.78,6.54s10.67,0,12.58-.32c.37,1,.72,2.1,1.09,3.14,1.76,5,3.54,10,5.14,15,.56,1.74,1,3.48,1.55,5.22-.54-1.05-1-1.94-1.09-2.06-2.59-3.91-9.91-9.95-15-8.52a6.22,6.22,0,0,0-3.85,8.42c1.36,3.45,5.4,5.59,8.77,6.53s10,.06,12.24-.27c.46,1.8.92,3.6,1.28,5.36.22,1.2.51,2.35.67,3.58s.35,2.4.52,3.59c.25,2.3.52,4.66.71,6.91.14,1.56.25,3.05.36,4.55-.54-1.74-1.67-5.13-1.8-5.4-2-4.26-8.29-11.33-13.51-10.69a6.21,6.21,0,0,0-5.08,7.73c.82,3.62,4.49,6.35,7.68,7.79C48,405,56.19,405,57.22,405c.17,2.48.32,4.9.42,7.18.3,6.27.37,11.7.35,16h3.47c-.08-4.33-.27-9.82-.71-16.15-.17-2.53-.4-5.22-.66-8a71.22,71.22,0,0,0,7.56-2.44c2.3,3.23,8.71,7.48,9.54,8-1.23,2.17-2.44,4.27-3.61,6.23-2.86,4.8-5.5,8.94-7.73,12.31H69.9c1.91-3.08,4.07-6.68,6.37-10.75,1.25-2.19,2.54-4.57,3.85-7,.95.33,8.77,3,12.62,2.62,3.49-.33,7.84-1.72,9.79-4.88a6.22,6.22,0,0,0-2.31-9c-4.73-2.3-13,2.35-16.24,5.74-.19.2-2,2.61-3.16,4.14.53-1,1.05-2,1.59-3,1.06-2.05,2.06-4.13,3.15-6.36.48-1.09,1-2.2,1.47-3.31s.92-2.33,1.39-3.5c1-2.73,2-5.56,2.81-8.42,1.79.93,8.22,4.13,11.74,4.33s8-.52,10.41-3.35a6.22,6.22,0,0,0-.92-9.21c-4.33-3-13.2.36-16.92,3.22-.24.18-2.68,2.54-4,3.86.5-1.73,1-3.45,1.46-5.21,1.31-5.09,2.47-10.28,3.65-15.45.36-1.59.74-3.16,1.11-4.74.64.34,8.19,4.31,12.13,4.53,3.5.2,8-.52,10.42-3.34a6.23,6.23,0,0,0-.93-9.22c-4.33-3-13.2.36-16.92,3.23-.28.21-3.78,3.6-4.63,4.51.82-3.47,1.67-6.93,2.65-10.3A110.76,110.76,0,0,1,105.26,334c.3.16,8.16,4.34,12.2,4.57,3.5.2,8-.52,10.42-3.34A6.22,6.22,0,0,0,127,326c-4.33-3-13.2.36-16.92,3.22-.25.19-2.92,2.77-4.16,4l-.25-.17a81.53,81.53,0,0,1,7.14-12.37c1.49-2.17,3-4.16,4.57-6.06,1.38.93,7.76,5.1,11.37,5.71s8,.36,10.72-2.18a6.23,6.23,0,0,0,.09-9.26c-4-3.44-13.16-1.09-17.17,1.34-.22.14-2.29,1.73-3.78,2.91.71-.85,1.42-1.74,2.12-2.53,2.6-3,5.17-5.6,7.46-7.88,1.31-1.28,2.53-2.42,3.67-3.47,1.84.2,9.25.92,12.67-.18s7.29-3.37,8.51-6.88A6.22,6.22,0,0,0,148.8,284c-5.11-1.22-12.18,5.09-14.62,9.1-.21.35-2.88,6.15-2.79,6.16h.11c-1.12,1-2.31,2.07-3.59,3.26-2.35,2.24-5,4.78-7.66,7.74a110.09,110.09,0,0,0-8.18,10,80.82,80.82,0,0,0-7.49,12.33l-.06.16c.22-1.52.7-5.8.7-6.14,0-4.69-2.78-13.76-7.79-15.36a6.22,6.22,0,0,0-7.86,4.89c-.77,3.63,1.42,7.65,3.72,10.29,2.59,3,10.38,6.56,11,6.84a109.58,109.58,0,0,0-5.25,13.73c-.85,2.72-1.63,5.5-2.37,8.28.15-1.32.27-2.5.27-2.67,0-4.7-2.78-13.76-7.79-15.36a6.21,6.21,0,0,0-7.85,4.89c-.78,3.63,1.42,7.64,3.71,10.29s8.92,5.86,10.67,6.68c-.27,1.07-.56,2.14-.83,3.22-1.29,5.15-2.56,10.3-4,15.31-.49,1.76-1,3.48-1.59,5.21.13-1.18.23-2.17.23-2.32,0-4.7-2.78-13.76-7.78-15.37A6.22,6.22,0,0,0,73.9,370c-.77,3.63,1.42,7.64,3.72,10.29s8.27,5.55,10.35,6.53c-.61,1.75-1.22,3.5-1.89,5.17-.48,1.13-.87,2.25-1.42,3.35l-1.54,3.29c-1.06,2.05-2.14,4.18-3.22,6.15-.75,1.38-1.48,2.68-2.22,4,.52-1.75,1.44-5.21,1.49-5.5a24.16,24.16,0,0,0-1.72-12.07,7.87,7.87,0,0,0,.09-1.38,6.23,6.23,0,0,0-6.88-6.2c-5.21.7-9.54,9.14-10.37,13.76,0,.27-.25,3.28-.35,5.19-.11-1.13-.21-2.23-.34-3.39-.25-2.29-.55-4.58-.88-7-.2-1.18-.4-2.37-.6-3.58s-.52-2.44-.77-3.68c-.65-2.85-1.44-5.71-2.31-8.57,2-.22,9.14-1.09,12.18-2.87s6.4-4.85,6.85-8.53a6.22,6.22,0,0,0-5.86-7.17c-5.25-.1-10.81,7.58-12.33,12-.1.28-.83,3.58-1.2,5.41-.54-1.72-1.06-3.43-1.66-5.15-1.72-5-3.61-9.93-5.48-14.9-.57-1.52-1.12-3-1.68-4.57.71-.07,9.21-.92,12.61-2.91,3-1.76,6.4-4.85,6.85-8.54a6.23,6.23,0,0,0-5.86-7.17c-5.25-.1-10.81,7.59-12.33,12-.12.33-1.17,5.09-1.38,6.32-1.23-3.35-2.42-6.71-3.47-10.06a109.55,109.55,0,0,1-3.4-13.79c.33,0,9.2-.89,12.69-2.92,3-1.77,6.4-4.86,6.84-8.54a6.22,6.22,0,0,0-5.85-7.17c-5.26-.1-10.81,7.58-12.34,12-.1.29-.9,3.92-1.24,5.66h-.3a79.56,79.56,0,0,1-.87-14.26c0-2.63.22-5.14.46-7.58,1.67,0,9.29,0,12.63-1.51s6.9-4.12,7.74-7.73a6.22,6.22,0,0,0-5-7.77C48.4,285.93,42,293,40,297.2c-.11.23-1,2.7-1.55,4.51.13-1.1.23-2.23.37-3.28.51-3.94,1.22-7.52,1.88-10.69.39-1.79.77-3.41,1.15-4.92,1.64-.84,8.22-4.33,10.46-7.13s4.22-6.84,3.31-10.43a6.23,6.23,0,0,0-8-4.58c-4.94,1.8-7.35,11-7.17,15.66,0,.41,1,6.72,1.07,6.68l.1-.06c-.39,1.45-.8,3-1.2,4.71-.73,3.15-1.52,6.73-2.12,10.67A110.08,110.08,0,0,0,37,311.17a81.27,81.27,0,0,0,.56,14.41,1,1,0,0,1,0,.17c-.65-1.39-2.61-5.23-2.8-5.51-2.59-3.91-9.91-9.94-15-8.52a6.23,6.23,0,0,0-3.86,8.42C17.28,323.59,21.32,325.73,24.69,326.67Z" transform="translate(-15.44 -37.21)" style="fill:#263238"/><path d="M24.93,299.76c3.53,2.11,12.71,3.08,12.71,3.08s-1.2-6.24-1.32-6.63C34.85,291.75,29.38,284,24.13,284a6.23,6.23,0,0,0-5.95,7.1C18.58,294.83,21.92,298,24.93,299.76Z" transform="translate(-15.44 -37.21)" style="fill:#263238;opacity:.30000000000000004"/><path d="M117.24,313.62c.07.06,2.44-5.87,2.55-6.26,1.23-4.53.95-14-3.46-16.88a6.23,6.23,0,0,0-8.87,2.65c-1.7,3.29-.65,7.74.87,10.9C110.11,307.75,117.23,313.61,117.24,313.62Z" transform="translate(-15.44 -37.21)" style="fill:#263238;opacity:.30000000000000004"/><path d="M24.69,326.67c3.81,1.07,12.28-.26,13-.37a109.22,109.22,0,0,0,3.2,14.35c.79,2.74,1.67,5.48,2.59,8.22-.61-1.19-1.16-2.25-1.25-2.39-2.6-3.91-9.91-9.94-15-8.51a6.21,6.21,0,0,0-3.86,8.41c1.36,3.45,5.4,5.59,8.78,6.54s10.67,0,12.58-.32c.37,1,.72,2.1,1.09,3.14,1.76,5,3.54,10,5.14,15,.56,1.74,1,3.48,1.55,5.22-.54-1.05-1-1.94-1.09-2.06-2.59-3.91-9.91-9.95-15-8.52a6.22,6.22,0,0,0-3.85,8.42c1.36,3.45,5.4,5.59,8.77,6.53s10,.06,12.24-.27c.46,1.8.92,3.6,1.28,5.36.22,1.2.51,2.35.67,3.58s.35,2.4.52,3.59c.25,2.3.52,4.66.71,6.91.14,1.56.25,3.05.36,4.55-.54-1.74-1.67-5.13-1.8-5.4-2-4.26-8.29-11.33-13.51-10.69a6.21,6.21,0,0,0-5.08,7.73c.82,3.62,4.49,6.35,7.68,7.79C48,405,56.19,405,57.22,405c.17,2.48.32,4.9.42,7.18.3,6.27.37,11.7.35,16h3.47c-.08-4.33-.27-9.82-.71-16.15-.17-2.53-.4-5.22-.66-8a71.22,71.22,0,0,0,7.56-2.44c2.3,3.23,8.71,7.48,9.54,8-1.23,2.17-2.44,4.27-3.61,6.23-2.86,4.8-5.5,8.94-7.73,12.31H69.9c1.91-3.08,4.07-6.68,6.37-10.75,1.25-2.19,2.54-4.57,3.85-7,.95.33,8.77,3,12.62,2.62,3.49-.33,7.84-1.72,9.79-4.88a6.22,6.22,0,0,0-2.31-9c-4.73-2.3-13,2.35-16.24,5.74-.19.2-2,2.61-3.16,4.14.53-1,1.05-2,1.59-3,1.06-2.05,2.06-4.13,3.15-6.36.48-1.09,1-2.2,1.47-3.31s.92-2.33,1.39-3.5c1-2.73,2-5.56,2.81-8.42,1.79.93,8.22,4.13,11.74,4.33s8-.52,10.41-3.35a6.22,6.22,0,0,0-.92-9.21c-4.33-3-13.2.36-16.92,3.22-.24.18-2.68,2.54-4,3.86.5-1.73,1-3.45,1.46-5.21,1.31-5.09,2.47-10.28,3.65-15.45.36-1.59.74-3.16,1.11-4.74.64.34,8.19,4.31,12.13,4.53,3.5.2,8-.52,10.42-3.34a6.23,6.23,0,0,0-.93-9.22c-4.33-3-13.2.36-16.92,3.23-.28.21-3.78,3.6-4.63,4.51.82-3.47,1.67-6.93,2.65-10.3A110.76,110.76,0,0,1,105.26,334c.3.16,8.16,4.34,12.2,4.57,3.5.2,8-.52,10.42-3.34A6.22,6.22,0,0,0,127,326c-4.33-3-13.2.36-16.92,3.22-.25.19-2.92,2.77-4.16,4l-.25-.17a81.53,81.53,0,0,1,7.14-12.37c1.49-2.17,3-4.16,4.57-6.06,1.38.93,7.76,5.1,11.37,5.71s8,.36,10.72-2.18a6.23,6.23,0,0,0,.09-9.26c-4-3.44-13.16-1.09-17.17,1.34-.22.14-2.29,1.73-3.78,2.91.71-.85,1.42-1.74,2.12-2.53,2.6-3,5.17-5.6,7.46-7.88,1.31-1.28,2.53-2.42,3.67-3.47,1.84.2,9.25.92,12.67-.18s7.29-3.37,8.51-6.88A6.22,6.22,0,0,0,148.8,284c-5.11-1.22-12.18,5.09-14.62,9.1-.21.35-2.88,6.15-2.79,6.16h.11c-1.12,1-2.31,2.07-3.59,3.26-2.35,2.24-5,4.78-7.66,7.74a110.09,110.09,0,0,0-8.18,10,80.82,80.82,0,0,0-7.49,12.33l-.06.16c.22-1.52.7-5.8.7-6.14,0-4.69-2.78-13.76-7.79-15.36a6.22,6.22,0,0,0-7.86,4.89c-.77,3.63,1.42,7.65,3.72,10.29,2.59,3,10.38,6.56,11,6.84a109.58,109.58,0,0,0-5.25,13.73c-.85,2.72-1.63,5.5-2.37,8.28.15-1.32.27-2.5.27-2.67,0-4.7-2.78-13.76-7.79-15.36a6.21,6.21,0,0,0-7.85,4.89c-.78,3.63,1.42,7.64,3.71,10.29s8.92,5.86,10.67,6.68c-.27,1.07-.56,2.14-.83,3.22-1.29,5.15-2.56,10.3-4,15.31-.49,1.76-1,3.48-1.59,5.21.13-1.18.23-2.17.23-2.32,0-4.7-2.78-13.76-7.78-15.37A6.22,6.22,0,0,0,73.9,370c-.77,3.63,1.42,7.64,3.72,10.29s8.27,5.55,10.35,6.53c-.61,1.75-1.22,3.5-1.89,5.17-.48,1.13-.87,2.25-1.42,3.35l-1.54,3.29c-1.06,2.05-2.14,4.18-3.22,6.15-.75,1.38-1.48,2.68-2.22,4,.52-1.75,1.44-5.21,1.49-5.5a24.16,24.16,0,0,0-1.72-12.07,7.87,7.87,0,0,0,.09-1.38,6.23,6.23,0,0,0-6.88-6.2c-5.21.7-9.54,9.14-10.37,13.76,0,.27-.25,3.28-.35,5.19-.11-1.13-.21-2.23-.34-3.39-.25-2.29-.55-4.58-.88-7-.2-1.18-.4-2.37-.6-3.58s-.52-2.44-.77-3.68c-.65-2.85-1.44-5.71-2.31-8.57,2-.22,9.14-1.09,12.18-2.87s6.4-4.85,6.85-8.53a6.22,6.22,0,0,0-5.86-7.17c-5.25-.1-10.81,7.58-12.33,12-.1.28-.83,3.58-1.2,5.41-.54-1.72-1.06-3.43-1.66-5.15-1.72-5-3.61-9.93-5.48-14.9-.57-1.52-1.12-3-1.68-4.57.71-.07,9.21-.92,12.61-2.91,3-1.76,6.4-4.85,6.85-8.54a6.23,6.23,0,0,0-5.86-7.17c-5.25-.1-10.81,7.59-12.33,12-.12.33-1.17,5.09-1.38,6.32-1.23-3.35-2.42-6.71-3.47-10.06a109.55,109.55,0,0,1-3.4-13.79c.33,0,9.2-.89,12.69-2.92,3-1.77,6.4-4.86,6.84-8.54a6.22,6.22,0,0,0-5.85-7.17c-5.26-.1-10.81,7.58-12.34,12-.1.29-.9,3.92-1.24,5.66h-.3a79.56,79.56,0,0,1-.87-14.26c0-2.63.22-5.14.46-7.58,1.67,0,9.29,0,12.63-1.51s6.9-4.12,7.74-7.73a6.22,6.22,0,0,0-5-7.77C48.4,285.93,42,293,40,297.2c-.11.23-1,2.7-1.55,4.51.13-1.1.23-2.23.37-3.28.51-3.94,1.22-7.52,1.88-10.69.39-1.79.77-3.41,1.15-4.92,1.64-.84,8.22-4.33,10.46-7.13s4.22-6.84,3.31-10.43a6.23,6.23,0,0,0-8-4.58c-4.94,1.8-7.35,11-7.17,15.66,0,.41,1,6.72,1.07,6.68l.1-.06c-.39,1.45-.8,3-1.2,4.71-.73,3.15-1.52,6.73-2.12,10.67A110.08,110.08,0,0,0,37,311.17a81.27,81.27,0,0,0,.56,14.41,1,1,0,0,1,0,.17c-.65-1.39-2.61-5.23-2.8-5.51-2.59-3.91-9.91-9.94-15-8.52a6.23,6.23,0,0,0-3.86,8.42C17.28,323.59,21.32,325.73,24.69,326.67Z" transform="translate(-15.44 -37.21)" style="fill:#263238;opacity:.30000000000000004"/></g><g id="freepik--Banknote--inject-92"><path d="M280.23,210.22c-64.4-25.71-128.79,26.08-193.18.38V110.74c64.39,25.7,128.78-26.09,193.18-.38Z" transform="translate(-15.44 -37.21)" style="fill:#3d4be4;stroke:#263238;stroke-linecap:round;stroke-linejoin:round"/><path d="M269,134.09c-9.19-2.45-16.63-10.42-16.63-19.64,0-.45,0-.89.07-1.34-45.55-4.65-91.1,18.28-136.64,14,0,.44.07.89.07,1.35,0,9.14-7.45,16.12-16.63,13.75a17,17,0,0,1-1.83-.59v43.18c.6.11,1.21.23,1.83.39,9.18,2.36,16.63,10.28,16.63,19.5a16.33,16.33,0,0,1-.33,3.24c45.72,4.43,91.44-18.69,137.15-13.91a17.25,17.25,0,0,1-.32-3.3c0-9.15,7.44-16.07,16.63-13.62.33.09.65.21,1,.32V134.31C269.6,134.24,269.28,134.18,269,134.09Z" transform="translate(-15.44 -37.21)" style="fill:#fff;stroke:#263238;stroke-linecap:round;stroke-linejoin:round"/><path d="M207.62,156.51c0,13.21-10.73,25.8-24,28.55s-24-6.15-24-19.43,10.74-25.79,24-28.55S207.62,143.23,207.62,156.51Z" transform="translate(-15.44 -37.21)" style="fill:#3d4be4;stroke:#263238;stroke-linecap:round;stroke-linejoin:round"/><path d="M183.22,179.12v-3.48c-2.41.38-4.22,0-5.42-1.24s-1.86-3.28-2-6.26l5.37-1.88a12.42,12.42,0,0,0,.31,2.88,2.46,2.46,0,0,0,.83,1.45,1.67,1.67,0,0,0,1.32.23,1.62,1.62,0,0,0,1.27-.93,3.82,3.82,0,0,0,.3-1.46,4.38,4.38,0,0,0-.82-2.8,9.2,9.2,0,0,0-2.27-2L179.67,162a15.77,15.77,0,0,1-1.91-1.56,6.44,6.44,0,0,1-1.38-2,7.5,7.5,0,0,1-.53-3,8.41,8.41,0,0,1,1.91-5.61,10,10,0,0,1,5.14-3.18v-3.33l1.79-.36v3.3a5.64,5.64,0,0,1,3.27.27,4,4,0,0,1,1.84,1.66,7.47,7.47,0,0,1,.84,2.39,17.33,17.33,0,0,1,.26,2.46l-5.44,1.76a21.34,21.34,0,0,0-.15-2.18,2.65,2.65,0,0,0-.5-1.35,1.08,1.08,0,0,0-1.17-.24,1.79,1.79,0,0,0-1.3,1,3.45,3.45,0,0,0-.42,1.56,3.41,3.41,0,0,0,.86,2.54,12.94,12.94,0,0,0,1.88,1.57l2.38,1.59a15.86,15.86,0,0,1,2.2,1.87,8.2,8.2,0,0,1,1.59,2.42,8.48,8.48,0,0,1,.6,3.36,8.61,8.61,0,0,1-.77,3.56,8.71,8.71,0,0,1-2.21,2.95,9.46,9.46,0,0,1-3.44,1.87v3.51Z" transform="translate(-15.44 -37.21)" style="fill:#263238"/><path d="M244.53,221.36A87.94,87.94,0,0,1,143,241.89l4.71-7.43-26.34-1.1,12.21,23.36,4.81-7.57a96.47,96.47,0,0,0,112.48-22Z" transform="translate(-15.44 -37.21)" style="fill:#263238"/><path d="M221.69,84.79l-5.19,7,26.21,2.92L232.13,70.61l-5.33,7.25A96.46,96.46,0,0,0,106.25,99.48l6.49,5.54a87.91,87.91,0,0,1,109-20.23Z" transform="translate(-15.44 -37.21)" style="fill:#263238"/></g><g id="freepik--Calendar--inject-92"><path d="M470.78,452.35H428l13.72-14.92s5-2.06,8.92-.91S470.78,452.35,470.78,452.35Z" transform="translate(-15.44 -37.21)" style="fill:#fff;stroke:#263238;stroke-linecap:round;stroke-linejoin:round"/><path d="M445.56,290.62,474.12,449a2.87,2.87,0,0,1-4.48,2.85l-18.5-13.1a6.52,6.52,0,0,0-8.4.74L427.44,456a1.51,1.51,0,0,1-2.59-1l-8.15-155.9Z" transform="translate(-15.44 -37.21)" style="fill:#263238;stroke:#263238;stroke-linejoin:round"/><path d="M442.74,439.53a6.43,6.43,0,0,1,3.24-1.77l1.15-.17-23.21-.34.93,17.77.83,1.17a1.37,1.37,0,0,0,1.76-.2Z" transform="translate(-15.44 -37.21)" style="fill:#fff;stroke:#263238;stroke-linecap:round;stroke-linejoin:round"/><polygon points="122.19 419.08 410.71 419.08 430.12 253.42 141.6 253.42 122.19 419.08" style="fill:#fff;stroke:#263238;stroke-linecap:round;stroke-linejoin:round"/><path d="M292.13,341.75l1-8.25a2,2,0,0,1-.31.12l-.5.14-.5.13-.32.1.15-1.29a4.24,4.24,0,0,0,.46-.18c.19-.07.39-.16.59-.25a6.5,6.5,0,0,0,.59-.32,2.65,2.65,0,0,0,.47-.37h1.33l-1.19,10.17Z" transform="translate(-15.44 -37.21)" style="fill:#263238"/><path d="M328.43,341.75l.14-1.23,3-3.88.61-.81a4.92,4.92,0,0,0,.5-.81,2.79,2.79,0,0,0,.27-.93,1.49,1.49,0,0,0-.1-.86.62.62,0,0,0-.6-.3,1,1,0,0,0-.65.22,1.34,1.34,0,0,0-.38.59,3.86,3.86,0,0,0-.17.81l0,.42h-1.71l.05-.45a4.55,4.55,0,0,1,.46-1.59,2.66,2.66,0,0,1,1-1.07,3,3,0,0,1,1.59-.39,2.28,2.28,0,0,1,1.88.7,2.53,2.53,0,0,1,.42,2,3.67,3.67,0,0,1-.3,1.14,5.66,5.66,0,0,1-.58,1c-.23.31-.48.63-.74,1l-2.46,3.16h3.09l-.16,1.39Z" transform="translate(-15.44 -37.21)" style="fill:#263238"/><path d="M368.71,341.91a2.68,2.68,0,0,1-1.5-.36,1.78,1.78,0,0,1-.73-1,4,4,0,0,1-.08-1.54l0-.35h1.72v.13l0,.17a3.79,3.79,0,0,0,0,.82.69.69,0,0,0,.77.69.89.89,0,0,0,.61-.19,1.22,1.22,0,0,0,.33-.55,5.59,5.59,0,0,0,.17-.87,2.52,2.52,0,0,0-.1-1.22.94.94,0,0,0-.9-.49h-.29l.17-1.39h.26a1.28,1.28,0,0,0,1-.37,2.17,2.17,0,0,0,.4-1.15,2,2,0,0,0-.08-1,.67.67,0,0,0-.7-.37.81.81,0,0,0-.77.4,2.83,2.83,0,0,0-.32,1.05l0,.18,0,.19h-1.72l0-.49a3.54,3.54,0,0,1,.48-1.47,2.51,2.51,0,0,1,1-.93,3.12,3.12,0,0,1,1.47-.32,2.85,2.85,0,0,1,1.42.31,1.76,1.76,0,0,1,.79.91,3.08,3.08,0,0,1,.14,1.46,3,3,0,0,1-.55,1.49,2.09,2.09,0,0,1-1.06.75,1.38,1.38,0,0,1,.65.43,1.8,1.8,0,0,1,.38.81,3.89,3.89,0,0,1,0,1.2,4.89,4.89,0,0,1-.45,1.61,2.57,2.57,0,0,1-1,1.09A3,3,0,0,1,368.71,341.91Z" transform="translate(-15.44 -37.21)" style="fill:#263238"/><path d="M406.7,341.75l.29-2.49h-3l.17-1.49,3.37-6.19h2l-.74,6.29h1l-.16,1.39h-1l-.3,2.49Zm-1.13-3.88h1.59l.51-4.42Z" transform="translate(-15.44 -37.21)" style="fill:#263238"/><path d="M177.58,365.35A2.63,2.63,0,0,1,176,365a1.63,1.63,0,0,1-.64-1.07,5.37,5.37,0,0,1,0-1.62h1.7a4.92,4.92,0,0,0,0,.91,1,1,0,0,0,.2.62.72.72,0,0,0,.59.21.76.76,0,0,0,.65-.29,1.81,1.81,0,0,0,.33-.79c.07-.34.13-.73.19-1.18a7.9,7.9,0,0,0,0-1,1.29,1.29,0,0,0-.19-.69.69.69,0,0,0-.6-.24.92.92,0,0,0-.63.24,1.72,1.72,0,0,0-.43.65H175.7l.76-5.67H181l-.18,1.56h-3.11l-.39,2.45a1.48,1.48,0,0,1,.59-.36,2.65,2.65,0,0,1,.81-.17,1.65,1.65,0,0,1,1.88,1.43,5,5,0,0,1,0,1.71,8.85,8.85,0,0,1-.28,1.48,3.65,3.65,0,0,1-.53,1.18,2.32,2.32,0,0,1-.9.77A3.14,3.14,0,0,1,177.58,365.35Z" transform="translate(-15.44 -37.21)" style="fill:#263238"/><path d="M216.73,365.33a2.25,2.25,0,0,1-1.48-.44,2.11,2.11,0,0,1-.72-1.19,5,5,0,0,1-.07-1.71l.42-3.56a6.8,6.8,0,0,1,.44-1.79,2.82,2.82,0,0,1,1-1.26,2.76,2.76,0,0,1,1.67-.47,2.85,2.85,0,0,1,1.42.3,1.5,1.5,0,0,1,.72.86,3.21,3.21,0,0,1,.1,1.39v.08a.19.19,0,0,1,0,.08H218.5a2.25,2.25,0,0,0,0-1c-.08-.23-.3-.34-.66-.34a.79.79,0,0,0-.56.2,1.55,1.55,0,0,0-.37.66,6.38,6.38,0,0,0-.24,1.22l-.14,1.22a1.54,1.54,0,0,1,.59-.46,2.11,2.11,0,0,1,.85-.17,1.84,1.84,0,0,1,1.27.37,1.79,1.79,0,0,1,.56,1,4.75,4.75,0,0,1,0,1.52,6.36,6.36,0,0,1-.46,1.78,2.92,2.92,0,0,1-1,1.23A2.75,2.75,0,0,1,216.73,365.33Zm.17-1.34a.72.72,0,0,0,.58-.23,1.47,1.47,0,0,0,.34-.62,6.63,6.63,0,0,0,.19-.95c0-.36.06-.69.07-1a1.36,1.36,0,0,0-.15-.69.66.66,0,0,0-.6-.26,1.15,1.15,0,0,0-.41.08,1.63,1.63,0,0,0-.34.21,1.74,1.74,0,0,0-.23.25l-.19,1.6a3.5,3.5,0,0,0,0,.79,1.12,1.12,0,0,0,.22.58A.64.64,0,0,0,216.9,364Z" transform="translate(-15.44 -37.21)" style="fill:#263238"/><path d="M250.81,365.2l3.05-8.84h-2.75l.16-1.34h4.46l-.13,1.07-3.11,9.11Z" transform="translate(-15.44 -37.21)" style="fill:#263238"/><path d="M290.68,365.33a2.67,2.67,0,0,1-1.52-.38,1.83,1.83,0,0,1-.71-1.09,4.74,4.74,0,0,1-.06-1.62,3.77,3.77,0,0,1,.17-.8,3.28,3.28,0,0,1,.32-.68,2.57,2.57,0,0,1,.45-.53,2.13,2.13,0,0,1,.56-.38,2.13,2.13,0,0,1-.66-.86,2.74,2.74,0,0,1-.16-1.39,3.93,3.93,0,0,1,.44-1.44,2.28,2.28,0,0,1,.94-.93,3.1,3.1,0,0,1,1.45-.32,2.53,2.53,0,0,1,1.37.33,1.67,1.67,0,0,1,.71.93,3.75,3.75,0,0,1-.38,2.82,2.91,2.91,0,0,1-.85.86,1.57,1.57,0,0,1,.47.38,1.87,1.87,0,0,1,.32.53,2.34,2.34,0,0,1,.16.68,3.6,3.6,0,0,1,0,.8,4.88,4.88,0,0,1-.44,1.62,2.61,2.61,0,0,1-1,1.09A3.12,3.12,0,0,1,290.68,365.33Zm.15-1.31a.84.84,0,0,0,.65-.26,1.48,1.48,0,0,0,.35-.63,5.12,5.12,0,0,0,.15-.78,3.89,3.89,0,0,0,0-.83,1.21,1.21,0,0,0-.2-.64.65.65,0,0,0-.58-.25.82.82,0,0,0-.63.25,1.53,1.53,0,0,0-.36.64,3.59,3.59,0,0,0-.18.83,4.17,4.17,0,0,0,0,.79,1.1,1.1,0,0,0,.2.63A.71.71,0,0,0,290.83,364Zm.57-4.86a.8.8,0,0,0,.52-.22,1.41,1.41,0,0,0,.33-.58,5.35,5.35,0,0,0,.17-.82,2,2,0,0,0-.08-1,.59.59,0,0,0-.6-.36.8.8,0,0,0-.69.36,2.13,2.13,0,0,0-.31.93,4,4,0,0,0,0,.84,1.17,1.17,0,0,0,.2.58A.64.64,0,0,0,291.4,359.16Z" transform="translate(-15.44 -37.21)" style="fill:#263238"/><path d="M328.33,365.33a2.84,2.84,0,0,1-1.41-.3,1.52,1.52,0,0,1-.73-.88,3.27,3.27,0,0,1-.1-1.4v-.14h1.66a2.14,2.14,0,0,0,.05,1c.08.22.31.34.68.34a.74.74,0,0,0,.55-.21,1.45,1.45,0,0,0,.35-.66,6.72,6.72,0,0,0,.24-1.22l.14-1.22a1.31,1.31,0,0,1-.58.45,2.31,2.31,0,0,1-.86.18,1.78,1.78,0,0,1-1.26-.38,1.85,1.85,0,0,1-.56-1.08,4.82,4.82,0,0,1,0-1.53,5.6,5.6,0,0,1,.47-1.76,2.8,2.8,0,0,1,1-1.2,2.87,2.87,0,0,1,1.6-.43,2.35,2.35,0,0,1,1.48.42,2,2,0,0,1,.72,1.16,4.7,4.7,0,0,1,.08,1.7l-.43,3.6a6.6,6.6,0,0,1-.44,1.8,2.92,2.92,0,0,1-.95,1.27A2.7,2.7,0,0,1,328.33,365.33ZM329,360a1,1,0,0,0,.58-.17,2.2,2.2,0,0,0,.37-.38l.19-1.58a4.4,4.4,0,0,0,0-.8,1.12,1.12,0,0,0-.21-.58.64.64,0,0,0-.53-.22.78.78,0,0,0-.57.23,1.45,1.45,0,0,0-.34.63,4.45,4.45,0,0,0-.19.94,9,9,0,0,0-.07,1,1.18,1.18,0,0,0,.15.69A.63.63,0,0,0,329,360Z" transform="translate(-15.44 -37.21)" style="fill:#263238"/><path d="M364.74,365.2l1-8.25-.31.11a4.39,4.39,0,0,1-.5.14l-.49.14a1.76,1.76,0,0,0-.32.1l.15-1.3.46-.17.59-.26c.2-.1.4-.2.59-.32a2.56,2.56,0,0,0,.46-.37h1.33l-1.19,10.18Z" transform="translate(-15.44 -37.21)" style="fill:#263238"/><path d="M372.35,365.35a2.47,2.47,0,0,1-1.43-.38,2,2,0,0,1-.75-1,3.47,3.47,0,0,1-.12-1.53l.53-4.51a4.38,4.38,0,0,1,.46-1.57,2.85,2.85,0,0,1,1-1.05,3,3,0,0,1,1.55-.37,2.55,2.55,0,0,1,1.46.37,2,2,0,0,1,.74,1.05,4,4,0,0,1,.1,1.57l-.53,4.51a4.16,4.16,0,0,1-.48,1.53,2.7,2.7,0,0,1-1,1A2.88,2.88,0,0,1,372.35,365.35Zm.18-1.5a.75.75,0,0,0,.6-.24,1.28,1.28,0,0,0,.32-.57,3.34,3.34,0,0,0,.14-.67l.53-4.46a5.3,5.3,0,0,0,0-.69,1.2,1.2,0,0,0-.17-.59.64.64,0,0,0-.57-.24.8.8,0,0,0-.62.24,1.58,1.58,0,0,0-.31.59,5.63,5.63,0,0,0-.14.69l-.52,4.46a3.74,3.74,0,0,0,0,.67,1.24,1.24,0,0,0,.19.57A.61.61,0,0,0,372.53,363.85Z" transform="translate(-15.44 -37.21)" style="fill:#263238"/><path d="M402.41,365.2l1-8.25-.31.11a5.07,5.07,0,0,1-.5.14l-.5.14a2.08,2.08,0,0,0-.32.1l.15-1.3.46-.17.59-.26a4.71,4.71,0,0,0,.59-.32A2.25,2.25,0,0,0,404,355h1.34l-1.2,10.18Z" transform="translate(-15.44 -37.21)" style="fill:#263238"/><path d="M408.59,365.2l1-8.25-.31.11a5.07,5.07,0,0,1-.5.14l-.5.14a2.08,2.08,0,0,0-.32.1l.15-1.3.46-.17.59-.26a5.54,5.54,0,0,0,.59-.32,2.25,2.25,0,0,0,.46-.37h1.33l-1.19,10.18Z" transform="translate(-15.44 -37.21)" style="fill:#263238"/><path d="M173.62,388.64l1-8.25-.31.11-.5.15-.5.13a1.87,1.87,0,0,0-.31.1l.15-1.3.46-.17.59-.26c.2-.1.4-.2.59-.32a3.07,3.07,0,0,0,.46-.36h1.33l-1.19,10.17Z" transform="translate(-15.44 -37.21)" style="fill:#263238"/><path d="M178.41,388.64l.15-1.23,3-3.88.62-.82a5.7,5.7,0,0,0,.5-.81,3.06,3.06,0,0,0,.26-.92,1.43,1.43,0,0,0-.1-.87.62.62,0,0,0-.59-.3.92.92,0,0,0-.65.23,1.29,1.29,0,0,0-.38.59,4.49,4.49,0,0,0-.18.8l-.05.43h-1.71l.06-.45a4.63,4.63,0,0,1,.45-1.59,2.72,2.72,0,0,1,1-1.08,3,3,0,0,1,1.59-.39,2.29,2.29,0,0,1,1.88.71,2.53,2.53,0,0,1,.42,2,3.69,3.69,0,0,1-.31,1.13,5.74,5.74,0,0,1-.58,1c-.23.31-.47.62-.74.95l-2.45,3.17h3.09l-.17,1.39Z" transform="translate(-15.44 -37.21)" style="fill:#263238"/><path d="M212.55,388.64l1-8.25-.31.11-.5.15-.49.13a1.76,1.76,0,0,0-.32.1l.15-1.3.46-.17.59-.26c.2-.1.4-.2.59-.32a3.07,3.07,0,0,0,.46-.36h1.33l-1.19,10.17Z" transform="translate(-15.44 -37.21)" style="fill:#263238"/><path d="M220,388.79a2.71,2.71,0,0,1-1.5-.36,1.73,1.73,0,0,1-.72-1,3.79,3.79,0,0,1-.09-1.53l0-.36h1.72v.13l0,.18a4.45,4.45,0,0,0,0,.81.81.81,0,0,0,.22.52.82.82,0,0,0,.55.17.88.88,0,0,0,.61-.19,1.17,1.17,0,0,0,.33-.55,5.45,5.45,0,0,0,.17-.86,2.45,2.45,0,0,0-.1-1.23.91.91,0,0,0-.89-.48H220l.16-1.4h.26a1.27,1.27,0,0,0,1-.37,2.09,2.09,0,0,0,.4-1.15,2,2,0,0,0-.08-1,.67.67,0,0,0-.7-.37.81.81,0,0,0-.77.41,2.9,2.9,0,0,0-.32,1l0,.18,0,.2h-1.72l.06-.49a3.36,3.36,0,0,1,.48-1.48,2.49,2.49,0,0,1,1-.93,3.25,3.25,0,0,1,1.47-.32,3,3,0,0,1,1.42.31,1.78,1.78,0,0,1,.79.92,2.93,2.93,0,0,1,.14,1.46,2.89,2.89,0,0,1-.55,1.48,2,2,0,0,1-1.06.75,1.48,1.48,0,0,1,.66.44,1.8,1.8,0,0,1,.37.8,3.35,3.35,0,0,1,0,1.2,5.06,5.06,0,0,1-.44,1.61,2.57,2.57,0,0,1-1,1.09A3,3,0,0,1,220,388.79Z" transform="translate(-15.44 -37.21)" style="fill:#263238"/><path d="M249,388.64l1-8.25-.31.11-.5.15-.5.13-.32.1.16-1.3.46-.17.59-.26c.2-.1.4-.2.59-.32a3.07,3.07,0,0,0,.46-.36h1.33l-1.19,10.17Z" transform="translate(-15.44 -37.21)" style="fill:#263238"/><path d="M256.69,388.64l.29-2.5h-3l.18-1.48,3.37-6.19h2l-.73,6.29h1l-.16,1.38h-1.05l-.29,2.5Zm-1.13-3.88h1.58l.52-4.42Z" transform="translate(-15.44 -37.21)" style="fill:#263238"/><path d="M286.64,388.64l1-8.25-.31.11-.5.15-.5.13a2.08,2.08,0,0,0-.32.1l.15-1.3.46-.17.59-.26a5.54,5.54,0,0,0,.59-.32,2.63,2.63,0,0,0,.46-.36h1.33l-1.19,10.17Z" transform="translate(-15.44 -37.21)" style="fill:#263238"/><path d="M294,388.79a2.57,2.57,0,0,1-1.53-.38,1.66,1.66,0,0,1-.65-1.06,5.41,5.41,0,0,1,0-1.62h1.69a4.79,4.79,0,0,0,0,.91,1,1,0,0,0,.2.61.68.68,0,0,0,.59.21.78.78,0,0,0,.65-.28,2.05,2.05,0,0,0,.32-.8,9.74,9.74,0,0,0,.19-1.18,6.6,6.6,0,0,0,.06-1,1.45,1.45,0,0,0-.19-.69.7.7,0,0,0-.6-.24.88.88,0,0,0-.63.24,1.68,1.68,0,0,0-.43.65h-1.5l.77-5.66h4.57l-.18,1.55h-3.12l-.39,2.45a1.56,1.56,0,0,1,.59-.36,2.66,2.66,0,0,1,.82-.16,1.79,1.79,0,0,1,1.27.33,1.92,1.92,0,0,1,.61,1.1,5.52,5.52,0,0,1,0,1.7,11.65,11.65,0,0,1-.28,1.49,3.71,3.71,0,0,1-.54,1.17,2.32,2.32,0,0,1-.9.77A3,3,0,0,1,294,388.79Z" transform="translate(-15.44 -37.21)" style="fill:#263238"/><path d="M324.32,388.64l1-8.25-.31.11-.5.15-.5.13a1.87,1.87,0,0,0-.31.1l.15-1.3.46-.17.59-.26c.2-.1.4-.2.59-.32a3.07,3.07,0,0,0,.46-.36h1.33l-1.19,10.17Z" transform="translate(-15.44 -37.21)" style="fill:#263238"/><path d="M331.93,388.78a2.31,2.31,0,0,1-1.48-.44,2.17,2.17,0,0,1-.72-1.2,5,5,0,0,1-.07-1.7l.42-3.57a6.8,6.8,0,0,1,.44-1.79,2.82,2.82,0,0,1,1-1.26,2.76,2.76,0,0,1,1.67-.47,2.85,2.85,0,0,1,1.42.3,1.53,1.53,0,0,1,.72.86,3.08,3.08,0,0,1,.1,1.39V381a.28.28,0,0,1,0,.09H333.7a2.3,2.3,0,0,0,0-1c-.08-.23-.3-.34-.66-.34a.81.81,0,0,0-.55.2,1.51,1.51,0,0,0-.38.66,6.66,6.66,0,0,0-.23,1.22l-.15,1.22a1.54,1.54,0,0,1,.59-.46,2.13,2.13,0,0,1,.86-.17,1.88,1.88,0,0,1,1.26.37,1.74,1.74,0,0,1,.56,1,4.76,4.76,0,0,1,0,1.52,6.36,6.36,0,0,1-.46,1.78,3,3,0,0,1-1,1.24A2.73,2.73,0,0,1,331.93,388.78Zm.17-1.35a.75.75,0,0,0,.58-.22,1.45,1.45,0,0,0,.34-.63,6.47,6.47,0,0,0,.19-.94c0-.37.06-.7.07-1a1.36,1.36,0,0,0-.15-.69.66.66,0,0,0-.6-.26,1.15,1.15,0,0,0-.41.08,1.55,1.55,0,0,0-.33.21,1.82,1.82,0,0,0-.24.25l-.19,1.6a4.21,4.21,0,0,0,0,.79,1.09,1.09,0,0,0,.22.58A.64.64,0,0,0,332.1,387.43Z" transform="translate(-15.44 -37.21)" style="fill:#263238"/><path d="M362,388.64l1-8.25-.31.11-.5.15-.5.13a2.08,2.08,0,0,0-.32.1l.15-1.3.46-.17.59-.26a5.54,5.54,0,0,0,.59-.32,2.63,2.63,0,0,0,.46-.36h1.34l-1.2,10.17Z" transform="translate(-15.44 -37.21)" style="fill:#263238"/><path d="M367.26,388.64l3.06-8.84h-2.75l.16-1.33h4.46l-.13,1.06L369,388.64Z" transform="translate(-15.44 -37.21)" style="fill:#263238"/><path d="M399.67,388.64l1-8.25-.31.11-.5.15-.5.13-.32.1.16-1.3.46-.17.59-.26c.2-.1.4-.2.59-.32a3.07,3.07,0,0,0,.46-.36h1.33l-1.19,10.17Z" transform="translate(-15.44 -37.21)" style="fill:#263238"/><path d="M407.13,388.78a2.58,2.58,0,0,1-1.51-.39,1.8,1.8,0,0,1-.71-1.09,4.23,4.23,0,0,1-.06-1.61,3.86,3.86,0,0,1,.17-.81,3.2,3.2,0,0,1,.32-.67,2.64,2.64,0,0,1,.45-.54,2.34,2.34,0,0,1,.55-.38,2.2,2.2,0,0,1-.65-.86,2.64,2.64,0,0,1-.16-1.39,3.75,3.75,0,0,1,.44-1.44,2.34,2.34,0,0,1,.94-.93,3.06,3.06,0,0,1,1.44-.32,2.5,2.5,0,0,1,1.37.33,1.72,1.72,0,0,1,.72.93,3.3,3.3,0,0,1,.09,1.43,3.35,3.35,0,0,1-.48,1.4,2.84,2.84,0,0,1-.84.85,1.74,1.74,0,0,1,.47.38,1.93,1.93,0,0,1,.32.54,2.63,2.63,0,0,1,.16.67,3.73,3.73,0,0,1,0,.81,4.59,4.59,0,0,1-.43,1.61,2.57,2.57,0,0,1-1,1.09A3,3,0,0,1,407.13,388.78Zm.16-1.32a.89.89,0,0,0,.65-.25,1.46,1.46,0,0,0,.34-.64,4,4,0,0,0,.16-.78,3.82,3.82,0,0,0,0-.82,1.25,1.25,0,0,0-.21-.65.64.64,0,0,0-.58-.25.81.81,0,0,0-.62.25,1.6,1.6,0,0,0-.36.64,3.71,3.71,0,0,0-.18.83,5.27,5.27,0,0,0,0,.79,1.18,1.18,0,0,0,.21.63A.67.67,0,0,0,407.29,387.46Zm.57-4.86a.75.75,0,0,0,.52-.22,1.42,1.42,0,0,0,.32-.57,4.64,4.64,0,0,0,.18-.83,2,2,0,0,0-.08-.94.58.58,0,0,0-.6-.37.79.79,0,0,0-.69.37,2,2,0,0,0-.32.93,3.87,3.87,0,0,0,0,.83,1.05,1.05,0,0,0,.2.58A.61.61,0,0,0,407.86,382.6Z" transform="translate(-15.44 -37.21)" style="fill:#263238"/><path d="M170.87,412.08l1-8.25-.31.11-.5.15-.5.13a2.08,2.08,0,0,0-.32.1l.15-1.29.46-.18.59-.26a4.19,4.19,0,0,0,.59-.32,2.23,2.23,0,0,0,.46-.36h1.33l-1.19,10.17Z" transform="translate(-15.44 -37.21)" style="fill:#263238"/><path d="M178.31,412.22a2.89,2.89,0,0,1-1.41-.3,1.57,1.57,0,0,1-.72-.88,3.18,3.18,0,0,1-.1-1.41v-.14h1.65a2.41,2.41,0,0,0,.05,1c.09.23.32.34.69.34a.79.79,0,0,0,.55-.2,1.55,1.55,0,0,0,.35-.67,6.7,6.7,0,0,0,.23-1.21l.14-1.22a1.4,1.4,0,0,1-.58.45,2.06,2.06,0,0,1-.86.17,1.72,1.72,0,0,1-1.25-.38,1.89,1.89,0,0,1-.57-1.07,5.49,5.49,0,0,1,0-1.53,5.74,5.74,0,0,1,.48-1.77,2.83,2.83,0,0,1,1-1.19,2.78,2.78,0,0,1,1.59-.43,2.38,2.38,0,0,1,1.49.42,2,2,0,0,1,.72,1.16,4.66,4.66,0,0,1,.07,1.69l-.42,3.61a6.8,6.8,0,0,1-.44,1.79,3,3,0,0,1-1,1.28A2.73,2.73,0,0,1,178.31,412.22Zm.64-5.36a.89.89,0,0,0,.58-.18,2,2,0,0,0,.38-.38l.19-1.58a3.6,3.6,0,0,0,0-.8,1.08,1.08,0,0,0-.2-.57.61.61,0,0,0-.53-.22.74.74,0,0,0-.57.22,1.46,1.46,0,0,0-.35.63,5.42,5.42,0,0,0-.18.94,7.15,7.15,0,0,0-.07,1,1.2,1.2,0,0,0,.15.7A.63.63,0,0,0,179,406.86Z" transform="translate(-15.44 -37.21)" style="fill:#263238"/><path d="M208.42,412.08l.14-1.23,3-3.88.62-.82a4.85,4.85,0,0,0,.49-.81,2.74,2.74,0,0,0,.27-.92,1.51,1.51,0,0,0-.1-.87.62.62,0,0,0-.59-.3,1,1,0,0,0-.66.23,1.44,1.44,0,0,0-.38.59,3.77,3.77,0,0,0-.17.8l0,.43h-1.71l.05-.45a4.7,4.7,0,0,1,.46-1.59,2.58,2.58,0,0,1,1-1.08,3.07,3.07,0,0,1,1.59-.38,2.26,2.26,0,0,1,1.87.7,2.57,2.57,0,0,1,.43,2,3.82,3.82,0,0,1-.31,1.13,5.74,5.74,0,0,1-.58,1c-.23.31-.48.63-.74.95l-2.46,3.17h3.09l-.16,1.39Z" transform="translate(-15.44 -37.21)" style="fill:#263238"/><path d="M218.74,412.23a2.36,2.36,0,0,1-1.43-.38,1.93,1.93,0,0,1-.76-1,3.44,3.44,0,0,1-.12-1.53l.53-4.51a4.39,4.39,0,0,1,.47-1.56,2.64,2.64,0,0,1,1-1,2.93,2.93,0,0,1,1.54-.38,2.53,2.53,0,0,1,1.46.38,1.92,1.92,0,0,1,.74,1,3.75,3.75,0,0,1,.1,1.56l-.53,4.51a4,4,0,0,1-.47,1.53,2.78,2.78,0,0,1-1,1A2.84,2.84,0,0,1,218.74,412.23Zm.17-1.49a.79.79,0,0,0,.61-.24,1.55,1.55,0,0,0,.32-.58,6,6,0,0,0,.14-.66l.52-4.46a4.12,4.12,0,0,0,0-.7,1.17,1.17,0,0,0-.17-.58.63.63,0,0,0-.56-.24.78.78,0,0,0-.62.24,1.43,1.43,0,0,0-.32.58,4.11,4.11,0,0,0-.13.7l-.53,4.46a3.61,3.61,0,0,0,0,.66,1.28,1.28,0,0,0,.19.58A.61.61,0,0,0,218.91,410.74Z" transform="translate(-15.44 -37.21)" style="fill:#263238"/><path d="M244.84,412.08l.14-1.23,3-3.88.62-.82a5.63,5.63,0,0,0,.49-.81,2.74,2.74,0,0,0,.27-.92,1.51,1.51,0,0,0-.1-.87.62.62,0,0,0-.59-.3,1,1,0,0,0-.66.23,1.44,1.44,0,0,0-.38.59,3.77,3.77,0,0,0-.17.8l-.05.43h-1.71l.05-.45a4.7,4.7,0,0,1,.46-1.59,2.58,2.58,0,0,1,1-1.08,3.07,3.07,0,0,1,1.59-.38,2.26,2.26,0,0,1,1.87.7,2.57,2.57,0,0,1,.43,2,3.82,3.82,0,0,1-.31,1.13,5.74,5.74,0,0,1-.58,1c-.23.31-.48.63-.74.95L247,410.69h3.09l-.16,1.39Z" transform="translate(-15.44 -37.21)" style="fill:#263238"/><path d="M253.72,412.08l1-8.25-.3.11-.5.15-.5.13a1.76,1.76,0,0,0-.32.1l.15-1.29.46-.18.59-.26a4.19,4.19,0,0,0,.59-.32,2.54,2.54,0,0,0,.46-.36h1.33l-1.19,10.17Z" transform="translate(-15.44 -37.21)" style="fill:#263238"/><path d="M282.51,412.08l.15-1.23,3-3.88.62-.82a5.7,5.7,0,0,0,.5-.81,3,3,0,0,0,.26-.92,1.43,1.43,0,0,0-.1-.87.62.62,0,0,0-.59-.3.92.92,0,0,0-.65.23,1.34,1.34,0,0,0-.38.59,4.49,4.49,0,0,0-.18.8l-.05.43h-1.7l0-.45a4.7,4.7,0,0,1,.45-1.59,2.72,2.72,0,0,1,1-1.08,3.07,3.07,0,0,1,1.59-.38,2.28,2.28,0,0,1,1.88.7,2.53,2.53,0,0,1,.42,2,3.54,3.54,0,0,1-.31,1.13,5.74,5.74,0,0,1-.58,1c-.23.31-.47.63-.74.95l-2.45,3.17h3.09l-.17,1.39Z" transform="translate(-15.44 -37.21)" style="fill:#263238"/><path d="M290,412.08l.14-1.23,3-3.88.62-.82a4.85,4.85,0,0,0,.49-.81,2.74,2.74,0,0,0,.27-.92,1.51,1.51,0,0,0-.1-.87.62.62,0,0,0-.59-.3,1,1,0,0,0-.66.23,1.33,1.33,0,0,0-.37.59,3.23,3.23,0,0,0-.18.8l-.05.43h-1.71l.05-.45a4.94,4.94,0,0,1,.46-1.59,2.58,2.58,0,0,1,1-1.08,3.07,3.07,0,0,1,1.59-.38,2.26,2.26,0,0,1,1.87.7,2.53,2.53,0,0,1,.43,2,3.82,3.82,0,0,1-.31,1.13,5.74,5.74,0,0,1-.58,1c-.23.31-.48.63-.74.95l-2.46,3.17h3.09l-.16,1.39Z" transform="translate(-15.44 -37.21)" style="fill:#263238"/><path d="M320.19,412.08l.14-1.23,3-3.88.61-.82a4.92,4.92,0,0,0,.5-.81,2.74,2.74,0,0,0,.27-.92,1.51,1.51,0,0,0-.1-.87.62.62,0,0,0-.6-.3,1,1,0,0,0-.65.23,1.44,1.44,0,0,0-.38.59,3.77,3.77,0,0,0-.17.8l0,.43H321l.05-.45a4.49,4.49,0,0,1,.46-1.59,2.63,2.63,0,0,1,1-1.08,3.12,3.12,0,0,1,1.59-.38,2.27,2.27,0,0,1,1.88.7,2.57,2.57,0,0,1,.43,2,3.82,3.82,0,0,1-.31,1.13,5.74,5.74,0,0,1-.58,1c-.23.31-.48.63-.74.95l-2.46,3.17h3.09l-.16,1.39Z" transform="translate(-15.44 -37.21)" style="fill:#263238"/><path d="M330.29,412.23a2.73,2.73,0,0,1-1.5-.36,1.7,1.7,0,0,1-.72-1,3.84,3.84,0,0,1-.09-1.54l0-.35h1.72v.12l0,.18a4.46,4.46,0,0,0,0,.81.81.81,0,0,0,.22.52.77.77,0,0,0,.55.17.92.92,0,0,0,.61-.18,1.18,1.18,0,0,0,.33-.56,5.45,5.45,0,0,0,.17-.86,2.45,2.45,0,0,0-.1-1.23.93.93,0,0,0-.89-.48h-.29l.16-1.4h.26a1.23,1.23,0,0,0,1-.37,2.05,2.05,0,0,0,.4-1.14,2,2,0,0,0-.08-1c-.1-.24-.33-.36-.7-.36a.81.81,0,0,0-.77.4,3,3,0,0,0-.32,1l0,.18,0,.2h-1.72l.06-.49A3.36,3.36,0,0,1,329,403a2.63,2.63,0,0,1,1-.93,3.25,3.25,0,0,1,1.47-.32,2.84,2.84,0,0,1,1.42.32,1.72,1.72,0,0,1,.79.91,2.94,2.94,0,0,1,.14,1.46,2.89,2.89,0,0,1-.55,1.48,2.07,2.07,0,0,1-1.05.76,1.4,1.4,0,0,1,.65.43,1.8,1.8,0,0,1,.37.8,3.35,3.35,0,0,1,0,1.2,5.2,5.2,0,0,1-.44,1.62,2.61,2.61,0,0,1-1,1.08A3,3,0,0,1,330.29,412.23Z" transform="translate(-15.44 -37.21)" style="fill:#263238"/><path d="M357.86,412.08l.15-1.23,3-3.88.62-.82a5.7,5.7,0,0,0,.5-.81,3,3,0,0,0,.26-.92,1.51,1.51,0,0,0-.1-.87.62.62,0,0,0-.59-.3,1,1,0,0,0-.66.23,1.42,1.42,0,0,0-.37.59,3.76,3.76,0,0,0-.18.8l-.05.43h-1.71l.06-.45a4.7,4.7,0,0,1,.45-1.59,2.65,2.65,0,0,1,1-1.08,3.07,3.07,0,0,1,1.59-.38,2.28,2.28,0,0,1,1.88.7,2.53,2.53,0,0,1,.42,2,3.54,3.54,0,0,1-.31,1.13,5.74,5.74,0,0,1-.58,1c-.23.31-.47.63-.74.95L360,410.69h3.09l-.17,1.39Z" transform="translate(-15.44 -37.21)" style="fill:#263238"/><path d="M368.19,412.08l.29-2.5h-3l.17-1.48,3.38-6.19h2l-.74,6.29h1l-.16,1.38h-1l-.29,2.5Zm-1.13-3.88h1.58l.52-4.42Z" transform="translate(-15.44 -37.21)" style="fill:#263238"/><path d="M395.54,412.08l.14-1.23,3-3.88.61-.82a4.92,4.92,0,0,0,.5-.81,2.74,2.74,0,0,0,.27-.92,1.51,1.51,0,0,0-.1-.87.62.62,0,0,0-.6-.3,1,1,0,0,0-.65.23,1.44,1.44,0,0,0-.38.59,3.77,3.77,0,0,0-.17.8l-.05.43h-1.71l.05-.45a4.49,4.49,0,0,1,.46-1.59,2.63,2.63,0,0,1,1-1.08,3.12,3.12,0,0,1,1.59-.38,2.27,2.27,0,0,1,1.88.7,2.57,2.57,0,0,1,.43,2,3.82,3.82,0,0,1-.31,1.13,5.74,5.74,0,0,1-.58,1c-.23.31-.48.63-.74.95l-2.46,3.17h3.09l-.16,1.39Z" transform="translate(-15.44 -37.21)" style="fill:#263238"/><path d="M405.63,412.23a2.5,2.5,0,0,1-1.53-.38,1.62,1.62,0,0,1-.65-1.06,5.09,5.09,0,0,1,0-1.62h1.69a5.89,5.89,0,0,0,0,.91,1.05,1.05,0,0,0,.21.61.66.66,0,0,0,.58.21.77.77,0,0,0,.66-.28,2,2,0,0,0,.32-.79,10.27,10.27,0,0,0,.19-1.19,5.43,5.43,0,0,0,0-1,1.19,1.19,0,0,0-.19-.68.66.66,0,0,0-.6-.25.88.88,0,0,0-.63.25,1.66,1.66,0,0,0-.42.64h-1.5l.76-5.66h4.58l-.19,1.56h-3.11l-.39,2.44a1.56,1.56,0,0,1,.59-.36,2.66,2.66,0,0,1,.82-.16,1.75,1.75,0,0,1,1.26.34,1.87,1.87,0,0,1,.62,1.09,5.59,5.59,0,0,1,0,1.71,11.81,11.81,0,0,1-.28,1.48,3.94,3.94,0,0,1-.54,1.17,2.32,2.32,0,0,1-.9.77A3,3,0,0,1,405.63,412.23Z" transform="translate(-15.44 -37.21)" style="fill:#263238"/><path d="M166.74,435.52l.15-1.23,3-3.88c.22-.28.43-.55.62-.81a5.7,5.7,0,0,0,.5-.81,3,3,0,0,0,.26-.93,1.49,1.49,0,0,0-.1-.86.62.62,0,0,0-.59-.31,1,1,0,0,0-.66.23,1.42,1.42,0,0,0-.37.59,3.76,3.76,0,0,0-.18.8l-.05.43h-1.71l.06-.45a4.77,4.77,0,0,1,.45-1.59,2.76,2.76,0,0,1,1-1.07,3,3,0,0,1,1.59-.39,2.28,2.28,0,0,1,1.88.7,2.53,2.53,0,0,1,.42,2,3.68,3.68,0,0,1-.31,1.14,5.66,5.66,0,0,1-.58,1c-.23.31-.47.63-.74.95l-2.45,3.17H172l-.17,1.39Z" transform="translate(-15.44 -37.21)" style="fill:#263238"/><path d="M177.06,435.66a2.29,2.29,0,0,1-1.48-.44,2.1,2.1,0,0,1-.72-1.2,5,5,0,0,1-.07-1.7l.42-3.57a7.33,7.33,0,0,1,.43-1.79,2.84,2.84,0,0,1,1-1.26,2.73,2.73,0,0,1,1.67-.46,3,3,0,0,1,1.42.29,1.56,1.56,0,0,1,.72.86,3.26,3.26,0,0,1,.1,1.4s0,0,0,.08a.21.21,0,0,1,0,.08h-1.67a2.47,2.47,0,0,0,0-1c-.09-.22-.31-.34-.67-.34a.79.79,0,0,0-.55.21,1.46,1.46,0,0,0-.37.65,6.68,6.68,0,0,0-.24,1.23l-.14,1.22a1.37,1.37,0,0,1,.59-.46,2.08,2.08,0,0,1,.85-.17,1.6,1.6,0,0,1,1.83,1.41,5.41,5.41,0,0,1,0,1.52,6.2,6.2,0,0,1-.46,1.77,2.91,2.91,0,0,1-1,1.24A2.72,2.72,0,0,1,177.06,435.66Zm.17-1.34a.77.77,0,0,0,.58-.23,1.57,1.57,0,0,0,.34-.63,5.24,5.24,0,0,0,.18-.94,7.26,7.26,0,0,0,.07-1,1.23,1.23,0,0,0-.15-.7.63.63,0,0,0-.59-.25,1.11,1.11,0,0,0-.41.08,1.08,1.08,0,0,0-.34.21,1.07,1.07,0,0,0-.23.25l-.19,1.59a3.51,3.51,0,0,0,0,.79,1,1,0,0,0,.22.59A.67.67,0,0,0,177.23,434.32Z" transform="translate(-15.44 -37.21)" style="fill:#263238"/><path d="M205.67,435.52l.15-1.23,3-3.88c.22-.28.43-.55.62-.81a5.7,5.7,0,0,0,.5-.81,3,3,0,0,0,.26-.93,1.41,1.41,0,0,0-.1-.86.62.62,0,0,0-.59-.31.92.92,0,0,0-.65.23,1.34,1.34,0,0,0-.38.59,4.49,4.49,0,0,0-.18.8l0,.43H206.5l.06-.45a4.77,4.77,0,0,1,.45-1.59,2.76,2.76,0,0,1,1-1.07,3,3,0,0,1,1.59-.39,2.28,2.28,0,0,1,1.88.7,2.53,2.53,0,0,1,.42,2,3.68,3.68,0,0,1-.31,1.14,5.66,5.66,0,0,1-.58,1c-.23.31-.47.63-.74.95l-2.45,3.17h3.09l-.17,1.39Z" transform="translate(-15.44 -37.21)" style="fill:#263238"/><path d="M213.65,435.52l3-8.84H214l.16-1.33h4.46l-.13,1.07-3.11,9.1Z" transform="translate(-15.44 -37.21)" style="fill:#263238"/><path d="M242.09,435.52l.15-1.23,3-3.88c.22-.28.43-.55.62-.81a5.7,5.7,0,0,0,.5-.81,3,3,0,0,0,.26-.93,1.49,1.49,0,0,0-.1-.86.62.62,0,0,0-.59-.31,1,1,0,0,0-.66.23,1.42,1.42,0,0,0-.37.59,4.49,4.49,0,0,0-.18.8l-.05.43h-1.71l.06-.45a4.77,4.77,0,0,1,.45-1.59,2.76,2.76,0,0,1,1-1.07,3,3,0,0,1,1.59-.39,2.28,2.28,0,0,1,1.88.7,2.53,2.53,0,0,1,.42,2A3.68,3.68,0,0,1,248,429a5.66,5.66,0,0,1-.58,1c-.23.31-.47.63-.74.95l-2.45,3.17h3.09l-.17,1.39Z" transform="translate(-15.44 -37.21)" style="fill:#263238"/><path d="M252.26,435.66a2.56,2.56,0,0,1-1.51-.39,1.87,1.87,0,0,1-.72-1.08,4.75,4.75,0,0,1-.06-1.62,4.81,4.81,0,0,1,.18-.81,2.77,2.77,0,0,1,.32-.67,2.26,2.26,0,0,1,.44-.53,2.35,2.35,0,0,1,.56-.39,2.25,2.25,0,0,1-.66-.86,2.8,2.8,0,0,1-.16-1.38,4,4,0,0,1,.44-1.44,2.3,2.3,0,0,1,.95-.93,3,3,0,0,1,1.44-.32,2.5,2.5,0,0,1,1.37.33,1.65,1.65,0,0,1,.71.92,3.06,3.06,0,0,1,.09,1.44,3.17,3.17,0,0,1-.47,1.39,3,3,0,0,1-.84.85,1.57,1.57,0,0,1,.46.39,1.9,1.9,0,0,1,.33.53,2.63,2.63,0,0,1,.16.67,3.72,3.72,0,0,1,0,.81,4.94,4.94,0,0,1-.43,1.62,2.61,2.61,0,0,1-1,1.08A3,3,0,0,1,252.26,435.66Zm.16-1.32a.85.85,0,0,0,.65-.25,1.59,1.59,0,0,0,.34-.63,5.24,5.24,0,0,0,.15-.79,3.27,3.27,0,0,0,0-.82,1.28,1.28,0,0,0-.21-.65.68.68,0,0,0-.58-.25.82.82,0,0,0-.62.25,1.74,1.74,0,0,0-.37.64,5.3,5.3,0,0,0-.18.83,4.19,4.19,0,0,0,0,.79,1.16,1.16,0,0,0,.21.64A.69.69,0,0,0,252.42,434.34Zm.56-4.86a.77.77,0,0,0,.53-.22,1.55,1.55,0,0,0,.32-.57,3.8,3.8,0,0,0,.17-.83,1.85,1.85,0,0,0-.08-.94.56.56,0,0,0-.59-.36.78.78,0,0,0-.69.36,2,2,0,0,0-.32.93,3.88,3.88,0,0,0,0,.83,1.05,1.05,0,0,0,.2.58A.6.6,0,0,0,253,429.48Z" transform="translate(-15.44 -37.21)" style="fill:#263238"/><path d="M279.77,435.52l.14-1.23,3-3.88.61-.81a4.92,4.92,0,0,0,.5-.81,2.79,2.79,0,0,0,.27-.93,1.49,1.49,0,0,0-.1-.86.63.63,0,0,0-.6-.31,1,1,0,0,0-.65.23,1.44,1.44,0,0,0-.38.59,3.77,3.77,0,0,0-.17.8l-.05.43H280.6l0-.45a4.55,4.55,0,0,1,.46-1.59,2.66,2.66,0,0,1,1-1.07,3,3,0,0,1,1.59-.39,2.28,2.28,0,0,1,1.88.7,2.53,2.53,0,0,1,.42,2,3.67,3.67,0,0,1-.3,1.14,5.66,5.66,0,0,1-.58,1c-.23.31-.48.63-.74.95l-2.46,3.17H285l-.16,1.39Z" transform="translate(-15.44 -37.21)" style="fill:#263238"/><path d="M289.91,435.66a2.84,2.84,0,0,1-1.41-.3,1.54,1.54,0,0,1-.72-.88,3,3,0,0,1-.1-1.41v-.13h1.66a2.22,2.22,0,0,0,0,1c.09.23.31.34.68.34a.73.73,0,0,0,.55-.2,1.45,1.45,0,0,0,.36-.66,7.86,7.86,0,0,0,.23-1.22l.14-1.22a1.4,1.4,0,0,1-.58.45,2.27,2.27,0,0,1-.86.18,1.71,1.71,0,0,1-1.25-.39,1.83,1.83,0,0,1-.57-1.07,4.82,4.82,0,0,1,0-1.53,6,6,0,0,1,.47-1.77,2.92,2.92,0,0,1,1-1.19,2.73,2.73,0,0,1,1.59-.43,2.35,2.35,0,0,1,1.48.42,2,2,0,0,1,.73,1.16,4.94,4.94,0,0,1,.07,1.7l-.42,3.6a7.41,7.41,0,0,1-.44,1.8,2.94,2.94,0,0,1-1,1.27A2.77,2.77,0,0,1,289.91,435.66Zm.64-5.36a.89.89,0,0,0,.58-.18,1.91,1.91,0,0,0,.38-.37l.18-1.59a3.55,3.55,0,0,0,0-.79,1.11,1.11,0,0,0-.2-.58.61.61,0,0,0-.53-.22.75.75,0,0,0-.58.23,1.47,1.47,0,0,0-.34.62,6.76,6.76,0,0,0-.19.94c0,.37-.06.69-.07,1a1.37,1.37,0,0,0,.15.7A.66.66,0,0,0,290.55,430.3Z" transform="translate(-15.44 -37.21)" style="fill:#263238"/><path d="M320.05,435.67a2.77,2.77,0,0,1-1.5-.35,1.78,1.78,0,0,1-.73-1,4,4,0,0,1-.08-1.54l0-.35h1.72v.12l0,.18a4.56,4.56,0,0,0,0,.82.8.8,0,0,0,.22.51.78.78,0,0,0,.55.18,1,1,0,0,0,.61-.19,1.28,1.28,0,0,0,.33-.55,5.83,5.83,0,0,0,.17-.87,2.52,2.52,0,0,0-.1-1.22.94.94,0,0,0-.9-.49h-.28l.16-1.39h.26a1.28,1.28,0,0,0,1-.37,2.17,2.17,0,0,0,.4-1.15,2.09,2.09,0,0,0-.08-1c-.1-.24-.33-.36-.7-.36a.81.81,0,0,0-.77.4,3,3,0,0,0-.32,1l0,.19,0,.19h-1.72l.05-.49a3.5,3.5,0,0,1,.49-1.48,2.46,2.46,0,0,1,1-.92,3.12,3.12,0,0,1,1.47-.32,2.85,2.85,0,0,1,1.42.31,1.76,1.76,0,0,1,.79.91,3.4,3.4,0,0,1-.41,2.94,2.05,2.05,0,0,1-1.06.76,1.46,1.46,0,0,1,.66.43,1.9,1.9,0,0,1,.37.81,3.3,3.3,0,0,1,0,1.19,4.88,4.88,0,0,1-.45,1.62,2.46,2.46,0,0,1-1,1.08A3,3,0,0,1,320.05,435.67Z" transform="translate(-15.44 -37.21)" style="fill:#263238"/><path d="M327.75,435.67a2.45,2.45,0,0,1-1.43-.37,2,2,0,0,1-.76-1.05,3.59,3.59,0,0,1-.12-1.53l.53-4.51a4.39,4.39,0,0,1,.47-1.56,2.64,2.64,0,0,1,1-1,3,3,0,0,1,1.54-.37,2.53,2.53,0,0,1,1.46.37,1.87,1.87,0,0,1,.74,1,3.75,3.75,0,0,1,.1,1.56l-.53,4.51a3.87,3.87,0,0,1-.47,1.53,2.73,2.73,0,0,1-1,1.05A2.93,2.93,0,0,1,327.75,435.67Zm.17-1.49a.79.79,0,0,0,.61-.24,1.55,1.55,0,0,0,.32-.58,3.88,3.88,0,0,0,.14-.66l.52-4.46a3.28,3.28,0,0,0,0-.7,1.07,1.07,0,0,0-.17-.58.63.63,0,0,0-.56-.24.78.78,0,0,0-.62.24,1.3,1.3,0,0,0-.31.58,3.47,3.47,0,0,0-.14.7l-.53,4.46a3.64,3.64,0,0,0,0,.66,1.17,1.17,0,0,0,.19.58A.58.58,0,0,0,327.92,434.18Z" transform="translate(-15.44 -37.21)" style="fill:#263238"/><path d="M357.72,435.67a2.76,2.76,0,0,1-1.49-.35,1.74,1.74,0,0,1-.73-1,3.84,3.84,0,0,1-.08-1.54l0-.35h1.72l0,.12,0,.18a4.56,4.56,0,0,0,0,.82.81.81,0,0,0,.23.51.74.74,0,0,0,.55.18.9.9,0,0,0,.6-.19,1.11,1.11,0,0,0,.33-.55,4.79,4.79,0,0,0,.17-.87,2.4,2.4,0,0,0-.1-1.22.92.92,0,0,0-.89-.49h-.29l.16-1.39h.27a1.3,1.3,0,0,0,1-.37,2.18,2.18,0,0,0,.39-1.15,2.11,2.11,0,0,0-.07-1c-.1-.24-.34-.36-.71-.36a.82.82,0,0,0-.77.4,2.84,2.84,0,0,0-.31,1l0,.19,0,.19h-1.72L356,428a3.64,3.64,0,0,1,.48-1.48,2.49,2.49,0,0,1,1-.92,3.12,3.12,0,0,1,1.47-.32,2.87,2.87,0,0,1,1.42.31,1.81,1.81,0,0,1,.79.91,3,3,0,0,1,.13,1.46,2.85,2.85,0,0,1-.55,1.48,2,2,0,0,1-1.05.76,1.43,1.43,0,0,1,.65.43,1.91,1.91,0,0,1,.38.81,3.83,3.83,0,0,1,0,1.19,5.13,5.13,0,0,1-.45,1.62,2.55,2.55,0,0,1-1,1.08A3,3,0,0,1,357.72,435.67Z" transform="translate(-15.44 -37.21)" style="fill:#263238"/><path d="M364,435.52l1-8.25a2,2,0,0,1-.31.12l-.5.14-.5.13-.32.1.15-1.29a4.24,4.24,0,0,0,.46-.18c.19-.07.39-.16.59-.25a4.75,4.75,0,0,0,.59-.33,2.24,2.24,0,0,0,.47-.36h1.33l-1.19,10.17Z" transform="translate(-15.44 -37.21)" style="fill:#263238"/><path d="M176.62,324.1l.29-2.51a6.62,6.62,0,0,0,1.29-.1,1.76,1.76,0,0,0,.83-.35,1.74,1.74,0,0,0,.48-.75,5.71,5.71,0,0,0,.27-1.26l1.77-15.07h3.55l-1.78,15.21a8.8,8.8,0,0,1-.71,2.72,3.33,3.33,0,0,1-1.53,1.59,6,6,0,0,1-2.75.52Z" transform="translate(-15.44 -37.21)" style="fill:#263238"/><path d="M187.2,323.62l6.21-19.56h3.81l1.62,19.56h-3.31l-.24-4.52h-3.41l-1.32,4.52Zm5.31-6.79h2.66l-.37-8.21Z" transform="translate(-15.44 -37.21)" style="fill:#263238"/><path d="M203.12,323.62l2.29-19.56h2.49l3.45,11.15,1.3-11.15h2.95l-2.29,19.56h-2.37l-3.41-11.69-1.37,11.69Z" transform="translate(-15.44 -37.21)" style="fill:#263238"/><path d="M224,323.88a5.61,5.61,0,0,1-3.28-.79,3.46,3.46,0,0,1-1.4-2.27,11.36,11.36,0,0,1-.05-3.53l1.55-13.23h3.48l-1.6,13.64a11.54,11.54,0,0,0-.08,1.73,2.1,2.1,0,0,0,.41,1.3,1.55,1.55,0,0,0,1.29.5,1.9,1.9,0,0,0,1.42-.5,3.07,3.07,0,0,0,.71-1.3,11.29,11.29,0,0,0,.33-1.73l1.6-13.64h3.45l-1.55,13.23a12.75,12.75,0,0,1-.87,3.53,4.82,4.82,0,0,1-1.92,2.27A6.61,6.61,0,0,1,224,323.88Z" transform="translate(-15.44 -37.21)" style="fill:#263238"/><path d="M233.69,323.62l6.2-19.56h3.82l1.62,19.56H242l-.24-4.52h-3.41l-1.32,4.52Zm5.31-6.79h2.66l-.37-8.21Z" transform="translate(-15.44 -37.21)" style="fill:#263238"/><path d="M249.6,323.62l2.3-19.56h4.68a9.67,9.67,0,0,1,3.29.47,3.28,3.28,0,0,1,1.89,1.6,5.46,5.46,0,0,1,.35,3.1,9.87,9.87,0,0,1-.47,2.12,4.55,4.55,0,0,1-.92,1.61,3.93,3.93,0,0,1-1.56,1l1.6,9.64h-3.57l-1.32-9h-1.64l-1,9Zm4.89-11.21h1.11a4.06,4.06,0,0,0,1.69-.3,2,2,0,0,0,1-1,4.86,4.86,0,0,0,.46-1.7,3.48,3.48,0,0,0-.28-2.21c-.31-.49-1-.73-2-.73h-1.31Z" transform="translate(-15.44 -37.21)" style="fill:#263238"/><path d="M268.05,323.62l.88-7.46-2.54-12.1h3.33l1.5,7.75,3.18-7.75h3.26l-5.33,12.1-.87,7.46Z" transform="translate(-15.44 -37.21)" style="fill:#263238"/><line x1="276.55" x2="411.23" y1="286.9" y2="286.9" style="fill:none;stroke:#263238;stroke-linecap:round;stroke-linejoin:round"/></g><g id="freepik--Character--inject-92"><path d="M329.38,351.9s-5,7.1-7.1,9.17-7.69,6.21-7.25,7.69,5,2.22,8.88,1.78,10.06-3.4,10.06-3.4,6.36-3.26,9.46-4.89,3.26-2.81,2.67-5.32a26.77,26.77,0,0,0-2.81-6.07S331.75,350.13,329.38,351.9Z" transform="translate(-15.44 -37.21)" style="fill:#fff;stroke:#263238;stroke-linecap:round;stroke-linejoin:round"/><path d="M343.43,362.25c2.26-1.18,2.95-2.13,2.94-3.52a18.69,18.69,0,0,0-5.6,2.19c-2.66,1.78-9,6.36-15.09,8a18,18,0,0,1-10.58-.72,1,1,0,0,0-.07.57c.45,1.48,5,2.22,8.88,1.78s10.06-3.4,10.06-3.4S340.33,363.88,343.43,362.25Z" transform="translate(-15.44 -37.21)" style="fill:#fff;stroke:#263238;stroke-linecap:round;stroke-linejoin:round"/><path d="M320.86,268.67s-20.62,4.08-23.74,12.23,31.66,68.36,31.66,68.36l-1.92,2.63,1.2,1.92s12.47,2.88,14.39,1.68,2.64-1.68,2.64-2.4-3.36-12.47-3.36-12.47l-13.43-48h23S367.87,284.5,370,280.9s-2.16-10.31-6.24-11.51-30.45-3.12-31.17-2.88S320.86,268.67,320.86,268.67Z" transform="translate(-15.44 -37.21)" style="fill:#263238;stroke:#263238;stroke-linecap:round;stroke-linejoin:round"/><path d="M345.09,353.09s-6.48,8.4-10.56,11-8.63,5-6.95,6.71,10.07,1.68,14.63.72,11.75-3.36,12.71-4.8,2.16-7.43,2.16-7.43S347,354.29,345.09,353.09Z" transform="translate(-15.44 -37.21)" style="fill:#fff;stroke:#263238;stroke-linecap:round;stroke-linejoin:round"/><path d="M354.92,366.76a9.77,9.77,0,0,0,.88-2.2c-2.61.91-13.6,4.69-18.87,5.32a25.69,25.69,0,0,1-9.42-.62,1.15,1.15,0,0,0,.07,1.58c1.68,1.68,10.07,1.68,14.63.72S354,368.2,354.92,366.76Z" transform="translate(-15.44 -37.21)" style="fill:#fff;stroke:#263238;stroke-linecap:round;stroke-linejoin:round"/><path d="M361.64,265.79s-17.51,12.72-17.51,16.55,1.68,34.3,1.68,34.3l-.72,32.86a11.57,11.57,0,0,0-1.92,2.39c-.24.72-.72,3.6-.72,3.6a48.3,48.3,0,0,0,6.71,2.88,24.75,24.75,0,0,0,7.92,1s2.16-7.92,2.16-8.88v-3.59l9.83-35,2.4-18.94s17.51.24,22.78-1,8.4-1.68,9.6-7.2-1.44-14.15-1.44-14.15S374.59,257.64,361.64,265.79Z" transform="translate(-15.44 -37.21)" style="fill:#263238;stroke:#263238;stroke-linecap:round;stroke-linejoin:round"/><path d="M367.39,181.37l-11.51,4.32-10.07,55.88,6.47,23.5h19l3.36-6.71s-.24-42.69.24-44.37,7.43-27.1,7.43-27.1Z" transform="translate(-15.44 -37.21)" style="fill:#fff;stroke:#263238;stroke-linecap:round;stroke-linejoin:round"/><path d="M364.59,206.42s-1.67,13.15-2.23,25.74" transform="translate(-15.44 -37.21)" style="fill:none;stroke:#263238;stroke-linecap:round;stroke-linejoin:round"/><path d="M367.67,211.32a1.26,1.26,0,1,1-1.26-1.26A1.25,1.25,0,0,1,367.67,211.32Z" transform="translate(-15.44 -37.21)" style="fill:none;stroke:#263238;stroke-linecap:round;stroke-linejoin:round"/><path d="M366.69,225.72a1.26,1.26,0,0,1-2.52,0,1.26,1.26,0,1,1,2.52,0Z" transform="translate(-15.44 -37.21)" style="fill:none;stroke:#263238;stroke-linecap:round;stroke-linejoin:round"/><path d="M365,242.23a1.26,1.26,0,1,1-1.25-1.26A1.25,1.25,0,0,1,365,242.23Z" transform="translate(-15.44 -37.21)" style="fill:none;stroke:#263238;stroke-linecap:round;stroke-linejoin:round"/><path d="M362.07,235.33s-.33,5.46-.5,11.24" transform="translate(-15.44 -37.21)" style="fill:none;stroke:#263238;stroke-linecap:round;stroke-linejoin:round"/><path d="M380.84,182.79s-4.37,15.11-7.52,26.61-1.67,54.71-1.67,54.71,8,.74,11.5,2.41,5.19,5.75,11.12,7.79A31,31,0,0,0,406,275.79s-4.45-22.07-4.82-26.52,2-53,.55-54.71S380.84,182.79,380.84,182.79Z" transform="translate(-15.44 -37.21)" style="fill:#3d4be4;stroke:#263238;stroke-linecap:round;stroke-linejoin:round"/><path d="M393.35,262.65a20.33,20.33,0,0,1,3.3,1.71" transform="translate(-15.44 -37.21)" style="fill:none;stroke:#263238;stroke-linecap:round;stroke-linejoin:round"/><path d="M377.46,261.48a29.19,29.19,0,0,1,13,.2" transform="translate(-15.44 -37.21)" style="fill:none;stroke:#263238;stroke-linecap:round;stroke-linejoin:round"/><path d="M376.5,259.8s1.2-1.2,5.28-1" transform="translate(-15.44 -37.21)" style="fill:none;stroke:#263238;stroke-linecap:round;stroke-linejoin:round"/><path d="M359.06,181.29s-24.5,14.57-25.06,15.5-13.54,42.28-13.54,42.28l28.38,1.12S355.94,190.47,359.06,181.29Z" transform="translate(-15.44 -37.21)" style="fill:#3d4be4;stroke:#263238;stroke-linecap:round;stroke-linejoin:round"/><line x1="322.91" x2="323.41" y1="174.49" y2="171.75" style="fill:none;stroke:#263238;stroke-linecap:round;stroke-linejoin:round"/><line x1="318.13" x2="322.28" y1="200.77" y2="177.94" style="fill:none;stroke:#263238;stroke-linecap:round;stroke-linejoin:round"/><path d="M359.06,181.29l-5.32,18,10.45-6.69,12.48,8.12s4.58-15.41,4.17-17.9a14.41,14.41,0,0,0-2.5-5.21Z" transform="translate(-15.44 -37.21)" style="fill:#fff;stroke:#263238;stroke-linecap:round;stroke-linejoin:round"/><path d="M359.21,135.82s-7,10.5-7,12.63a20.13,20.13,0,0,1-1.56,6.81c-.56,1-5.39,3-5.11,5a8.2,8.2,0,0,0,2.13,3.83s1.42,14.19,3.55,13.91a43.16,43.16,0,0,1,6.67.14s6.38,24.27,6.95,23.41,13.62-21.28,13.62-21.28,1.14-8.8,1.71-9.79,9.22-7.66,10.78-11.64,1.14-14.61-1.28-18.3-13.62-8.94-19.29-8.51S360.06,133.69,359.21,135.82Z" transform="translate(-15.44 -37.21)" style="fill:#c4c4c4;stroke:#263238;stroke-linecap:round;stroke-linejoin:round"/><path d="M370.42,132c-5.68.42-10.36,1.7-11.21,3.83,0,0-1,2.27,2.27,2.27s11.21-.29,11.21,3.12-5.68,4.82-5.54,6.53,3.69,5.81,3.69,5.81-1.42,4,.29,4.54,1.84-1.7,4-1.13,4.11,5.82,3.12,7.52a19.68,19.68,0,0,1-4,4,55,55,0,0,0,5.8,2.42,1.78,1.78,0,0,1,.16-.43c.56-1,9.22-7.66,10.78-11.64s1.14-14.61-1.28-18.3S376.09,131.56,370.42,132Z" transform="translate(-15.44 -37.21)" style="fill:#263238;stroke:#263238;stroke-linecap:round;stroke-linejoin:round"/><path d="M351.11,164.05a7.69,7.69,0,0,0,5.87-1.78s2,3.92-1.24,5.16S351.11,164.05,351.11,164.05Z" transform="translate(-15.44 -37.21)" style="fill:#263238"/><path d="M355.76,154c-.33,1.12-1,1.92-1.48,1.78s-.62-1.18-.29-2.3,1-1.93,1.49-1.78S356.1,152.9,355.76,154Z" transform="translate(-15.44 -37.21)" style="fill:#263238"/><path d="M354.86,148.1s2.17-2,3.69.86" transform="translate(-15.44 -37.21)" style="fill:none;stroke:#263238;stroke-linecap:round;stroke-linejoin:round;stroke-width:2px"/><path d="M357.67,154.62c-.79,2.51-2.55,4.19-3.93,3.75s-1.87-2.81-1.08-5.32,2.54-4.18,3.93-3.75S358.45,152.12,357.67,154.62Z" transform="translate(-15.44 -37.21)" style="fill:none;stroke:#263238;stroke-linecap:round;stroke-linejoin:round"/><line x1="337.22" x2="335.25" y1="115.85" y2="114.86" style="fill:none;stroke:#263238;stroke-linecap:round;stroke-linejoin:round"/><line x1="342.63" x2="357.39" y1="116.28" y2="119.97" style="fill:none;stroke:#263238;stroke-linecap:round;stroke-linejoin:round"/><path d="M351.26,178s6.24-1.49,6.81-1.49,9.51-3.69,9.51-3.69l-8.52,8.51-1.13-3.19Z" transform="translate(-15.44 -37.21)" style="fill:#263238;stroke:#263238;stroke-linecap:round;stroke-linejoin:round"/><path d="M401.69,194.56s3.16,0,5.38,6.31,13.91,46.18,12.8,48.59-13.91,2.78-15.77.18a41.11,41.11,0,0,1-3.7-7.79l-2.23-25.59" transform="translate(-15.44 -37.21)" style="fill:#3d4be4;stroke:#263238;stroke-linecap:round;stroke-linejoin:round"/><path d="M396.5,228.87l-3.34-3.15s-.18-11.87-.74-12.61-7.79-3.71-8.35-3.71-3.89,3.34-3.89,3.34-.93,4.26-1.11,5.37,0,5.94,0,5.94.18,2.78,1.3,3a17.7,17.7,0,0,0,2.41.18,12.07,12.07,0,0,0,2.59,3.53,13.22,13.22,0,0,0,3,1.48l5.19,4.64Z" transform="translate(-15.44 -37.21)" style="fill:#c4c4c4;stroke:#263238;stroke-linecap:round;stroke-linejoin:round"/><line x1="364.74" x2="373.74" y1="175.53" y2="178" style="fill:none;stroke:#263238;stroke-linecap:round;stroke-linejoin:round"/><line x1="364.08" x2="371.92" y1="179.64" y2="182.29" style="fill:none;stroke:#263238;stroke-linecap:round;stroke-linejoin:round"/><line x1="363.63" x2="370.92" y1="184.02" y2="185.84" style="fill:none;stroke:#263238;stroke-linecap:round;stroke-linejoin:round"/><polyline points="367.33 190 367.91 188.39 366.18 187.84" style="fill:none;stroke:#263238;stroke-linecap:round;stroke-linejoin:round"/><path d="M418.57,241.67l-22.07-12.8-8,12.61s16.32,16,18.36,17.62,6.49,2.23,8.53,1.67,5.75-5.56,5.75-10.2A19.48,19.48,0,0,0,418.57,241.67Z" transform="translate(-15.44 -37.21)" style="fill:#3d4be4;stroke:#263238;stroke-linecap:round;stroke-linejoin:round"/><polygon points="350.38 234.85 366.97 226.44 344.86 225.34 350.38 234.85" style="fill:#ededed;stroke:#263238;stroke-linecap:round;stroke-linejoin:round"/><polygon points="292.66 196.81 301.95 231.75 350.38 234.85 340.43 197.69 292.66 196.81" style="fill:#ccc;stroke:#263238;stroke-linecap:round;stroke-linejoin:round"/><path d="M339.08,252.26c0,1.87-1.87,3.38-4.17,3.38s-4.17-1.51-4.17-3.38,1.86-3.39,4.17-3.39S339.08,250.38,339.08,252.26Z" transform="translate(-15.44 -37.21)" style="fill:#fff;stroke:#263238;stroke-linecap:round;stroke-linejoin:round"/><path d="M308.26,243.43s-.13,2.36.7,2.92,6,1.66,6.38.41.14-2.36-1-2.63S309.79,242.6,308.26,243.43Z" transform="translate(-15.44 -37.21)" style="fill:#c4c4c4;stroke:#263238;stroke-linecap:round;stroke-linejoin:round"/><path d="M309,246.35s-.14,2.91.69,3.46,4.16.7,4.86-.13a6.74,6.74,0,0,0,.83-2.92S310.48,247.32,309,246.35Z" transform="translate(-15.44 -37.21)" style="fill:#c4c4c4;stroke:#263238;stroke-linecap:round;stroke-linejoin:round"/><path d="M309.65,249.81a8.27,8.27,0,0,0,1.25,2.5c.56.42,3.75.42,4.16-.41s-.55-2.22-.55-2.22A24.29,24.29,0,0,1,309.65,249.81Z" transform="translate(-15.44 -37.21)" style="fill:#c4c4c4;stroke:#263238;stroke-linecap:round;stroke-linejoin:round"/><path d="M310.9,252.31a1.83,1.83,0,0,0,1.39,1.67c1.39.41,3.33.55,3.47-.28a2.75,2.75,0,0,0-.7-1.8A12.7,12.7,0,0,1,310.9,252.31Z" transform="translate(-15.44 -37.21)" style="fill:#c4c4c4;stroke:#263238;stroke-linecap:round;stroke-linejoin:round"/></g></svg>